<svg width="1440" height="1108" viewBox="0 0 1440 1108" fill="none" xmlns="http://www.w3.org/2000/svg">
<mask id="mask0" style="mask-type:alpha" maskUnits="userSpaceOnUse" x="0" y="0" width="1440" height="1108">
<rect width="1440" height="1108" fill="#0E141C"/>
</mask>
<g mask="url(#mask0)">
<g opacity="0.1">
<path d="M215.37 1108C215.118 1108 214.916 1107.85 214.866 1107.59L194.69 1004.39L-248.62 777.024C-248.873 776.921 -248.974 776.614 -248.822 776.357C-248.721 776.101 -248.368 775.998 -248.167 776.152L195.346 1003.62C195.497 1003.68 195.598 1003.83 195.598 1003.98L215.874 1107.38C215.925 1107.64 215.774 1107.95 215.471 1108C215.471 1108 215.42 1108 215.37 1108Z" fill="#F7F9FC"/>
<path d="M412.487 1108C412.436 1108 412.335 1108 412.285 1107.95L194.942 1004.55C194.791 1004.5 194.69 1004.34 194.64 1004.19L156.003 807.131L-248.62 577.197C-248.873 577.043 -248.974 576.736 -248.822 576.479C-248.671 576.223 -248.368 576.12 -248.116 576.274L156.709 806.362C156.861 806.413 156.911 806.567 156.961 806.721L195.598 1003.73L412.739 1107.03C412.991 1107.13 413.092 1107.44 412.991 1107.69C412.84 1107.9 412.688 1108 412.487 1108Z" fill="#F7F9FC"/>
<path d="M747.201 1108C747.151 1108 747.05 1108 747 1107.95L500.402 988.494L156.205 807.234C156.053 807.183 155.953 807.029 155.953 806.875L122.965 638.592L-248.62 410.247C-248.873 410.094 -248.923 409.786 -248.772 409.529C-248.62 409.273 -248.318 409.222 -248.066 409.375L123.722 637.874C123.823 637.925 123.924 638.079 123.974 638.233L156.961 806.516L500.906 987.622L747.504 1107.08C747.756 1107.18 747.857 1107.49 747.756 1107.74C747.554 1107.9 747.403 1108 747.201 1108Z" fill="#F7F9FC"/>
<path d="M1261.78 1108C1261.73 1108 1261.63 1108 1261.58 1107.95L1137.55 1056.15L916.929 954.283C916.828 954.232 916.728 954.129 916.677 954.027L859.983 831.853L627.005 707.372L406.131 681.624C406.081 681.624 405.98 681.573 405.929 681.573L94.6185 493.132L-248.62 268.686C-248.873 268.532 -248.923 268.225 -248.772 267.968C-248.62 267.712 -248.318 267.66 -248.066 267.814L95.1733 492.26L406.383 680.65L627.257 706.397C627.307 706.397 627.358 706.449 627.459 706.449L860.639 831.033C860.74 831.084 860.79 831.186 860.841 831.289L917.535 953.462L1138 1055.22L1262.03 1107.03C1262.29 1107.13 1262.44 1107.44 1262.29 1107.69C1262.19 1107.9 1261.98 1108 1261.78 1108Z" fill="#F7F9FC"/>
<path d="M450.266 824.827C450.266 824.827 450.215 824.827 450.266 824.827L156.457 807.285L-248.419 772.818C-248.721 772.818 -248.923 772.562 -248.873 772.254C-248.873 771.946 -248.62 771.741 -248.318 771.793L156.507 806.311L450.316 823.852C450.619 823.852 450.82 824.109 450.77 824.416C450.719 824.621 450.518 824.827 450.266 824.827Z" fill="#F7F9FC"/>
<path d="M1613.39 1108C1613.24 1108 1613.09 1107.9 1612.99 1107.79L1580.31 1059.79L1399.58 993.264C1399.48 993.212 1399.38 993.161 1399.33 993.058L1229.96 724.862L1104.26 729.016L965.704 728.452L809.343 721.938L627.206 707.474C627.156 707.474 627.055 707.423 627.005 707.423L367.192 555.45L69.7016 366.035L-248.671 147.18C-248.923 147.026 -248.973 146.718 -248.822 146.462C-248.671 146.205 -248.368 146.154 -248.116 146.308L70.2565 365.215L367.646 554.476L627.358 706.397L809.343 720.861L965.654 727.375L1104.21 727.939L1230.16 723.785C1230.36 723.785 1230.51 723.887 1230.61 724.041L1400.09 992.34L1580.81 1058.86C1580.91 1058.92 1581.01 1058.97 1581.06 1059.07L1613.85 1107.23C1614 1107.49 1613.95 1107.79 1613.7 1107.95C1613.6 1107.95 1613.5 1108 1613.39 1108Z" fill="#F7F9FC"/>
<path d="M1019.52 1108C1019.47 1108 1019.37 1108 1019.32 1107.95L980.432 1091.02C980.331 1090.97 980.231 1090.87 980.18 1090.77L916.778 954.232L675.931 831.802L406.081 681.624L123.369 638.797L-248.469 570.529C-248.721 570.478 -248.923 570.222 -248.873 569.914C-248.822 569.658 -248.57 569.452 -248.267 569.504L123.52 637.771L406.283 680.65C406.333 680.65 406.383 680.701 406.434 680.701L676.385 830.879L917.383 953.36C917.484 953.411 917.585 953.514 917.635 953.616L980.987 1090.2L1019.72 1107.03C1019.98 1107.13 1020.08 1107.44 1019.98 1107.69C1019.88 1107.9 1019.72 1108 1019.52 1108Z" fill="#F7F9FC"/>
<path d="M1687.49 1094.97C1687.44 1094.97 1687.39 1094.97 1687.34 1094.97L1580.51 1059.84C1580.41 1059.79 1580.31 1059.74 1580.26 1059.63L1514.63 963.156L1338.35 896.069L1213.16 916.534L1074.7 935.921L917.232 954.334L731.263 971.824C731.162 971.824 731.061 971.824 731.01 971.773L450.064 824.775C449.963 824.724 449.862 824.621 449.812 824.468L366.89 555.091L332.44 443.125L47.7605 254.171L-248.671 41.6758C-248.923 41.5219 -248.974 41.2141 -248.772 40.9577C-248.62 40.7012 -248.318 40.6499 -248.066 40.8551L48.3658 253.351L333.196 442.355C333.297 442.406 333.347 442.509 333.398 442.612L367.898 554.783L450.72 823.955L731.363 970.799L917.182 953.309L1074.65 934.895L1213.06 915.508L1338.35 895.043C1338.45 895.043 1338.5 895.043 1338.6 895.094L1515.14 962.284C1515.24 962.336 1515.34 962.387 1515.39 962.49L1581.01 1058.92L1687.69 1094C1687.94 1094.1 1688.09 1094.36 1687.99 1094.66C1687.89 1094.87 1687.69 1094.97 1687.49 1094.97Z" fill="#F7F9FC"/>
<path d="M1164.99 1108C1164.79 1108 1164.64 1107.9 1164.54 1107.74L1137.35 1055.94L1074.3 935.819L860.236 831.956C860.135 831.905 860.034 831.802 859.983 831.7L808.989 721.733L583.274 596.021L367.343 555.399L94.7699 493.184L-248.52 402.041C-248.772 401.99 -248.974 401.682 -248.873 401.426C-248.822 401.169 -248.52 400.964 -248.267 401.067L94.9716 492.209L367.444 554.424L583.425 595.046C583.476 595.046 583.526 595.098 583.576 595.098L809.494 720.964C809.595 721.015 809.645 721.118 809.695 721.22L860.69 831.135L1074.75 934.998C1074.85 935.049 1074.96 935.101 1075.01 935.203L1138.16 1055.48L1165.34 1107.28C1165.49 1107.54 1165.39 1107.85 1165.14 1108C1165.14 1108 1165.04 1108 1164.99 1108Z" fill="#F7F9FC"/>
<path d="M1490.68 1108C1490.63 1108 1490.57 1108 1490.52 1107.95L1466.77 1099.54C1466.67 1099.49 1466.57 1099.43 1466.52 1099.33L1399.48 993.161L1212.86 916.482L1017.3 827.135L809.09 721.836C808.989 721.784 808.889 721.682 808.838 721.579L762.737 622.23L583.274 596.021C583.223 596.021 583.123 595.969 583.072 595.969L332.692 443.227L69.8529 366.138L-248.52 259.557C-248.772 259.454 -248.923 259.198 -248.822 258.89C-248.721 258.633 -248.469 258.48 -248.166 258.582L70.206 365.163L333.045 442.253C333.095 442.253 333.146 442.304 333.146 442.304L583.577 595.046L763.191 621.256C763.342 621.256 763.493 621.409 763.594 621.563L809.746 721.015L1017.81 826.263L1213.31 915.61L1399.99 992.34C1400.09 992.392 1400.19 992.443 1400.24 992.546L1467.27 1098.72L1490.88 1107.08C1491.13 1107.18 1491.28 1107.49 1491.18 1107.74C1491.08 1107.85 1490.88 1108 1490.68 1108Z" fill="#F7F9FC"/>
<path d="M1687.49 953.155C1687.44 953.155 1687.39 953.155 1687.34 953.155L1623.58 933.459L1454.46 874.476L1338.45 896.069C1338.35 896.069 1338.25 896.069 1338.15 896.017L1156.11 818.569L1017.51 827.135L860.387 831.905L676.132 831.751L450.215 824.724C450.114 824.724 450.064 824.724 449.963 824.673L123.117 638.643C122.965 638.592 122.915 638.438 122.864 638.284L47.6091 254.12L-248.57 137.435C-248.822 137.332 -248.974 137.024 -248.873 136.768C-248.772 136.511 -248.469 136.358 -248.217 136.46L48.2144 253.248C48.3657 253.299 48.517 253.453 48.517 253.607L123.873 637.976L450.366 823.801L676.132 830.828L860.387 830.981L1017.51 826.211L1156.21 817.595C1156.31 817.595 1156.36 817.595 1156.41 817.646L1338.4 895.043L1454.36 873.45C1454.46 873.45 1454.51 873.45 1454.61 873.45L1623.84 932.433L1687.59 952.129C1687.84 952.232 1687.99 952.488 1687.94 952.744C1687.89 953.001 1687.69 953.155 1687.49 953.155Z" fill="#F7F9FC"/>
<path d="M1466.87 1099.59C1466.82 1099.59 1466.77 1099.59 1466.67 1099.54L1275.3 1023.99L1137.85 1056.2L980.684 1091.07C980.584 1091.07 980.483 1091.07 980.382 1091.02L731.01 971.773C730.909 971.722 730.809 971.619 730.758 971.517L626.752 707.064L582.971 595.713L543.629 495.748L332.793 443.278C332.641 443.227 332.49 443.124 332.44 442.919L301.621 342.801L28.3414 154.976L-248.57 31.6227C-248.822 31.5201 -248.923 31.2124 -248.822 30.9559C-248.721 30.6995 -248.419 30.5969 -248.166 30.6995L28.7953 154.053C28.8458 154.053 28.8458 154.104 28.8962 154.104L302.327 342.031C302.428 342.083 302.479 342.185 302.529 342.288L333.297 442.304L544.083 494.774C544.234 494.825 544.385 494.928 544.436 495.081L583.879 595.303L627.66 706.654L731.616 970.901L980.684 1090L1137.7 1055.17L1275.3 1022.96C1275.4 1022.96 1275.5 1022.96 1275.6 1022.96L1466.92 1098.51L1580.51 1058.86L1687.34 1021.32C1687.59 1021.22 1687.89 1021.37 1687.99 1021.63C1688.09 1021.88 1687.94 1022.19 1687.69 1022.29L1580.86 1059.84L1467.12 1099.54C1467.02 1099.59 1466.97 1099.59 1466.87 1099.59Z" fill="#F7F9FC"/>
<path d="M1324.13 1108C1323.97 1108 1323.77 1107.9 1323.67 1107.74L1274.9 1023.73L1212.55 916.277L1155.71 818.364L1103.76 728.862L917.989 638.233L720.721 531.651L507.918 405.067L303.487 271.918L273.93 252.632C273.829 252.581 273.779 252.479 273.728 252.376L248.761 170.927L15.1264 1.05381C14.9246 0.899941 14.8237 0.5922 15.0255 0.335749C15.1768 0.130588 15.4794 0.0280071 15.7316 0.233168L249.467 170.209C249.568 170.26 249.618 170.363 249.669 170.466L274.737 251.914L304.143 271.097L508.573 404.246L721.377 530.831L918.594 637.361L1104.46 728.042C1104.56 728.093 1104.61 728.144 1104.66 728.247L1275.85 1023.27L1324.63 1107.28C1324.78 1107.54 1324.68 1107.85 1324.43 1108C1324.33 1108 1324.23 1108 1324.13 1108Z" fill="#F7F9FC"/>
<path d="M1275.4 1023.99C1275.35 1023.99 1275.25 1023.99 1275.2 1023.94L1074.45 935.87C1074.35 935.818 1074.25 935.767 1074.2 935.665L1017.1 826.929L965.2 728.144L917.988 638.232L763.039 622.281C762.888 622.281 762.686 622.127 762.636 621.973L720.721 531.651L543.83 495.799C543.679 495.748 543.528 495.645 543.477 495.492L507.918 405.016L301.873 342.954C301.722 342.903 301.571 342.801 301.52 342.595L273.829 252.581L28.4422 155.027C28.3918 155.027 28.3414 154.976 28.3414 154.976L-178.913 1.05367C-179.115 0.899795 -179.166 0.540763 -179.014 0.335602C-178.863 0.130441 -178.51 0.0791512 -178.308 0.233022L28.8962 154.104L274.535 251.76C274.687 251.812 274.787 251.914 274.838 252.068L302.529 342.031L508.523 404.092C508.674 404.144 508.775 404.246 508.825 404.4L544.385 494.825L721.225 530.677C721.376 530.728 721.528 530.831 721.578 530.984L763.443 621.255L918.392 637.207C918.543 637.207 918.695 637.309 918.796 637.463L966.108 727.58L1017.96 826.365L1074.96 934.946L1275.4 1022.86L1399.58 992.186L1514.74 962.182C1514.84 962.182 1514.94 962.182 1515.04 962.182L1687.59 1020.7C1687.84 1020.81 1687.99 1021.06 1687.89 1021.37C1687.79 1021.63 1687.54 1021.78 1687.24 1021.68L1514.79 963.207L1399.73 993.161L1275.4 1023.88C1275.5 1023.99 1275.45 1023.99 1275.4 1023.99Z" fill="#F7F9FC"/>
<path d="M-248.368 1020.14C-248.62 1020.14 -248.873 1019.93 -248.873 1019.63C-248.873 1019.32 -248.671 1019.11 -248.368 1019.11L195.144 1003.52L500.604 987.468L731.212 970.747C731.515 970.747 731.717 970.952 731.767 971.209C731.767 971.517 731.565 971.722 731.313 971.773L500.705 988.494L195.194 1004.55L-248.368 1020.14Z" fill="#F7F9FC"/>
<path d="M1564.11 851.6C1564.06 851.6 1564.01 851.6 1563.96 851.549L1398.67 792.565L1282.11 806.926C1282.01 806.926 1281.91 806.926 1281.86 806.875L1104.01 728.914C1103.91 728.863 1103.81 728.811 1103.76 728.709L1056.04 646.49L874.712 555.655L682.488 448.972L475.586 322.592L248.912 171.03C248.811 170.978 248.761 170.876 248.71 170.773L225.962 96.8127L25.5167 1.10511C25.2645 1.00253 25.1636 0.69479 25.2645 0.438339C25.3654 0.181887 25.668 0.0793068 25.9202 0.181887L226.567 95.9921C226.719 96.0434 226.769 96.146 226.82 96.2998L249.568 170.312L476.141 321.72L682.992 448.1L875.216 554.732L1056.65 645.67C1056.75 645.721 1056.8 645.772 1056.85 645.875L1104.56 728.093L1282.11 805.901L1398.67 791.539C1398.78 791.539 1398.83 791.539 1398.93 791.539L1564.17 850.574L1669.18 826.417C1669.28 826.417 1669.33 826.417 1669.43 826.417L1687.64 831.546C1687.89 831.597 1688.04 831.905 1687.99 832.161C1687.94 832.418 1687.64 832.571 1687.39 832.52L1669.28 827.391L1564.27 851.549C1564.22 851.6 1564.17 851.6 1564.11 851.6Z" fill="#F7F9FC"/>
<path d="M1687.49 699.781C1687.34 699.781 1687.19 699.729 1687.09 699.576L1617.98 615.562L1515.69 629.205L1409.82 639.617C1409.62 639.617 1409.47 639.566 1409.37 639.412L1364.88 578.325L1254.72 580.89C1254.57 580.89 1254.37 580.787 1254.32 580.685L1212.91 519.803L1096.64 513.341C1096.49 513.341 1096.34 513.238 1096.24 513.084L1057.96 452.459L933.826 435.328C933.675 435.328 933.524 435.226 933.473 435.072L898.418 374.703L764.199 344.852C764.048 344.801 763.947 344.75 763.846 344.596L732.322 284.586L585.241 239.143C585.09 239.092 584.989 238.989 584.938 238.887L557.398 179.492L393.975 114.815C393.925 114.815 393.925 114.764 393.875 114.764L233.932 1.05368C233.679 0.899812 233.629 0.592071 233.831 0.335619C233.982 0.0791681 234.285 0.0278778 234.537 0.233039L394.429 113.892L558.004 178.621C558.105 178.672 558.205 178.774 558.256 178.877L585.796 238.271L732.826 283.663C732.977 283.714 733.078 283.817 733.129 283.919L764.603 343.878L898.822 373.729C898.973 373.78 899.074 373.831 899.124 373.985L934.129 434.354L1058.26 451.485C1058.41 451.485 1058.51 451.587 1058.61 451.741L1096.9 512.366L1213.16 518.829C1213.31 518.829 1213.46 518.931 1213.56 519.034L1254.97 579.915L1365.13 577.351C1365.28 577.351 1365.43 577.402 1365.54 577.556L1410.02 638.643L1515.59 628.282L1618.14 614.588C1618.29 614.588 1618.49 614.639 1618.59 614.742L1687.84 698.96C1688.04 699.165 1687.99 699.524 1687.79 699.678C1687.74 699.73 1687.59 699.781 1687.49 699.781Z" fill="#F7F9FC"/>
<path d="M537.374 1108C537.172 1108 536.971 1107.85 536.87 1107.64L500.15 988.186L449.812 824.467C449.711 824.211 449.862 823.903 450.165 823.801C450.417 823.698 450.72 823.852 450.82 824.16L501.159 987.878L537.879 1107.33C537.979 1107.59 537.828 1107.9 537.525 1108C537.475 1108 537.425 1108 537.374 1108Z" fill="#F7F9FC"/>
<path d="M1669.28 827.391C1669.23 827.391 1669.18 827.391 1669.13 827.391L1508.88 775.793L1398.83 792.565C1398.72 792.565 1398.62 792.565 1398.57 792.513L1230.01 724.759C1229.9 724.708 1229.8 724.656 1229.75 724.554L1181.84 648.696L1137.6 578.633L1012.31 570.683C1012.16 570.683 1012.01 570.581 1011.91 570.427L971.303 500.415L835.016 479.745C834.865 479.745 834.713 479.643 834.663 479.489L797.993 409.632L647.483 373.267C647.331 373.216 647.231 373.113 647.13 373.011L614.899 303.512L446.079 247.349C446.029 247.349 445.978 247.298 445.978 247.298L226.113 96.8638L97.2916 1.05367C97.0899 0.899795 97.0394 0.540763 97.1908 0.335602C97.3421 0.130441 97.6952 0.0791512 97.8969 0.233022L226.668 96.0432L446.482 246.426L615.403 302.538C615.555 302.589 615.656 302.692 615.706 302.794L647.937 372.292L798.397 408.657C798.548 408.709 798.649 408.76 798.75 408.914L835.419 478.771L971.706 499.441C971.857 499.441 972.009 499.544 972.059 499.697L1012.66 569.657L1137.9 577.607C1138.05 577.607 1138.21 577.71 1138.31 577.864L1182.69 648.131L1230.51 723.836L1398.78 791.436L1508.78 774.664C1508.83 774.664 1508.93 774.664 1509.04 774.664L1669.28 826.262L1687.34 821.749C1687.59 821.698 1687.89 821.851 1687.94 822.108C1687.99 822.364 1687.84 822.672 1687.59 822.723L1669.38 827.288C1669.38 827.391 1669.33 827.391 1669.28 827.391Z" fill="#F7F9FC"/>
<path d="M1687.49 510.879C1687.44 510.879 1687.44 510.879 1687.39 510.879L1631.05 498.313C1630.95 498.313 1630.85 498.21 1630.8 498.159L1590.85 452.305L1491.48 461.384C1491.33 461.384 1491.18 461.332 1491.03 461.179L1453.6 415.684L1352.27 418.454C1352.12 418.454 1351.97 418.402 1351.87 418.249L1316.91 373.113L1212.65 368.805C1212.5 368.805 1212.35 368.702 1212.25 368.6L1179.67 323.823L1071.48 311.565C1071.32 311.565 1071.22 311.462 1071.12 311.36L1040.91 266.942L927.572 245.606C927.421 245.554 927.32 245.503 927.219 245.4L899.427 201.393L779.533 169.542C779.382 169.491 779.281 169.44 779.23 169.286L754.011 125.792L625.945 81.5794C625.895 81.5794 625.895 81.5281 625.845 81.5281L498.637 1.0537C498.385 0.899831 498.334 0.592089 498.485 0.335638C498.637 0.0791866 498.939 0.0278964 499.192 0.181767L626.299 80.6562L754.515 124.92C754.616 124.971 754.717 125.022 754.767 125.125L779.987 168.619L899.83 200.47C899.931 200.521 900.083 200.573 900.133 200.675L927.925 244.631L1041.26 265.968C1041.41 265.968 1041.51 266.07 1041.56 266.173L1071.78 310.539L1179.97 322.797C1180.12 322.797 1180.22 322.9 1180.32 323.003L1212.91 367.728L1317.16 372.036C1317.32 372.036 1317.47 372.139 1317.52 372.241L1352.47 417.325L1453.8 414.556C1453.96 414.556 1454.11 414.607 1454.21 414.761L1491.58 460.204L1590.95 451.126C1591.1 451.126 1591.25 451.177 1591.35 451.279L1631.35 497.236L1687.54 509.802C1687.79 509.853 1687.99 510.161 1687.94 510.417C1687.94 510.725 1687.74 510.879 1687.49 510.879Z" fill="#F7F9FC"/>
<path d="M1687.49 1021.01C1687.34 1021.01 1687.19 1020.96 1687.09 1020.81L1623.33 933.254L1563.71 851.395L1409.57 639.669L1299.31 646.388L1182.29 648.952L1056.39 646.644L918.291 638.284C918.14 638.284 917.938 638.181 917.888 638.027L874.661 555.655L721.023 531.703C720.872 531.651 720.721 531.549 720.62 531.395L682.387 448.92L508.17 405.067C508.018 405.016 507.867 404.913 507.817 404.759L475.485 322.541L274.132 252.684C274.081 252.684 274.031 252.632 274.031 252.632L10.9902 66.3463L-122.069 1.10511C-122.321 1.00253 -122.422 0.69479 -122.321 0.438339C-122.22 0.181887 -121.917 0.0793068 -121.665 0.181887L11.3937 65.4231C11.3937 65.4231 11.4441 65.4231 11.4441 65.4744L274.434 251.761L475.939 321.669C476.09 321.72 476.191 321.823 476.242 321.977L508.573 404.195L682.74 448.048C682.891 448.1 682.992 448.202 683.093 448.305L721.326 530.728L874.913 554.681C875.065 554.681 875.216 554.783 875.266 554.937L918.493 637.258L1056.34 645.567L1182.19 647.875L1299.16 645.311L1409.67 638.592C1409.82 638.592 1410.02 638.643 1410.12 638.797L1564.47 850.779L1624.09 932.639L1687.84 1020.19C1687.99 1020.4 1687.94 1020.76 1687.74 1020.91C1687.69 1021.01 1687.59 1021.01 1687.49 1021.01Z" fill="#F7F9FC"/>
<path d="M1687.49 563.041C1687.34 563.041 1687.19 562.99 1687.14 562.887L1673.42 547.141L1573.45 561.041C1573.29 561.041 1573.09 560.989 1572.99 560.887L1530.98 509.802L1428.99 517.444C1428.84 517.444 1428.64 517.393 1428.53 517.239L1389.19 466.513L1284.18 467.128C1283.98 467.128 1283.87 467.077 1283.77 466.923L1247.05 416.505L1137.85 409.221C1137.7 409.221 1137.55 409.119 1137.45 409.016L1103.35 358.957L988.654 342.544C988.503 342.544 988.402 342.442 988.301 342.339L956.877 292.639L835.117 265.609C834.966 265.557 834.865 265.506 834.814 265.352L806.215 216.062L675.628 176.466C675.477 176.415 675.376 176.312 675.325 176.21L649.753 127.484L507.968 72.8088C507.918 72.8088 507.918 72.7575 507.867 72.7575L402.6 1.0537C402.348 0.899831 402.298 0.592089 402.449 0.335638C402.6 0.0791866 402.903 0.0278964 403.155 0.181767L508.372 71.7317L650.257 126.458C650.358 126.51 650.459 126.612 650.509 126.715L676.082 175.389L806.669 214.985C806.77 215.037 806.871 215.088 806.972 215.19L835.571 264.429L957.281 291.459C957.432 291.51 957.533 291.562 957.583 291.664L988.957 341.364L1103.66 357.777C1103.81 357.777 1103.91 357.88 1104.01 357.983L1138.05 408.042L1247.26 415.325C1247.41 415.325 1247.56 415.428 1247.61 415.53L1284.28 465.897L1389.29 465.282C1389.44 465.282 1389.6 465.333 1389.7 465.487L1429.04 516.213L1531.03 508.571C1531.18 508.571 1531.33 508.622 1531.43 508.776L1573.45 559.861L1673.42 545.961C1673.57 545.961 1673.77 546.013 1673.87 546.115L1687.79 562.066C1687.99 562.272 1687.94 562.579 1687.74 562.784C1687.74 562.99 1687.59 563.041 1687.49 563.041Z" fill="#F7F9FC"/>
<path d="M1687.49 726.965C1687.44 726.965 1687.39 726.965 1687.34 726.965L1563.26 690.805C1563.16 690.754 1563.06 690.703 1563.01 690.651L1515.24 629.052L1470.65 571.555L1365.13 578.326C1364.98 578.326 1364.78 578.274 1364.68 578.121L1323.02 520.932L1213.06 519.855C1212.91 519.855 1212.76 519.752 1212.65 519.65L1173.92 462.717L1058.16 452.511C1058.01 452.511 1057.86 452.408 1057.76 452.254L1021.99 395.63L898.62 374.755C898.469 374.755 898.368 374.652 898.267 374.498L865.582 318.181L732.524 284.586C732.372 284.535 732.271 284.484 732.221 284.33L702.916 228.475L557.6 179.493C557.449 179.441 557.348 179.339 557.298 179.236L531.725 124.099L370.925 56.1396L256.629 1.10511C256.377 1.00253 256.276 0.69479 256.377 0.438339C256.478 0.181887 256.781 0.0793068 257.033 0.181887L371.227 55.2676L532.179 123.279C532.28 123.33 532.381 123.432 532.431 123.535L558.004 178.672L703.269 227.654C703.37 227.705 703.471 227.808 703.572 227.911L732.877 283.714L865.935 317.31C866.087 317.361 866.188 317.412 866.238 317.566L898.872 373.831L1022.3 394.707C1022.45 394.707 1022.55 394.809 1022.65 394.912L1058.51 451.485L1174.32 461.692C1174.47 461.692 1174.62 461.794 1174.67 461.897L1213.41 518.778L1323.37 519.855C1323.52 519.855 1323.67 519.957 1323.77 520.06L1365.38 577.249L1470.9 570.478C1471.05 570.478 1471.21 570.53 1471.31 570.683L1516.05 628.385L1563.71 689.831L1687.64 725.939C1687.89 726.042 1688.04 726.298 1687.99 726.555C1687.89 726.811 1687.69 726.965 1687.49 726.965Z" fill="#F7F9FC"/>
<path d="M1687.49 438.97C1687.44 438.97 1687.44 438.97 1687.39 438.97L1553.02 408.657L1418.19 372.498L1283.77 330.337L1164.59 287.151L1148.85 281.458L1012.36 224.987L873.249 159.848L730.203 84.7594C730.102 84.7081 730.052 84.6569 730.001 84.5543L707.556 45.8814L589.881 1.10503C589.629 1.00245 589.478 0.694713 589.579 0.438262C589.68 0.18181 589.982 0.0279396 590.234 0.13052L708.06 44.9582C708.161 45.0095 708.262 45.0608 708.313 45.1634L730.758 83.8875L873.602 158.874L1012.66 223.961L1149.1 280.432L1164.84 286.125L1284.03 329.311L1418.4 371.472L1553.17 407.632L1687.54 437.944C1687.79 437.995 1687.99 438.303 1687.94 438.56C1687.94 438.816 1687.74 438.97 1687.49 438.97Z" fill="#F7F9FC"/>
<path d="M1687.49 850.882C1687.34 850.882 1687.19 850.831 1687.09 850.677L1563.16 690.856L1457.64 705.269L1347.18 716.707L1230.21 724.759C1230.11 724.759 1230.06 724.759 1229.96 724.708L1056.19 646.542C1056.09 646.49 1055.99 646.439 1055.94 646.336L1012.01 570.632L874.863 555.655C874.712 555.655 874.56 555.553 874.46 555.399L834.764 479.694L682.639 449.023C682.488 448.971 682.336 448.869 682.286 448.715L647.231 373.113L475.737 322.592C475.586 322.541 475.485 322.438 475.435 322.284L445.928 247.196L249.013 171.081L11.0407 66.3974C10.9903 66.3974 10.9903 66.3462 10.9398 66.3462L-74.3529 1.05367C-74.5546 0.899795 -74.6051 0.540763 -74.4538 0.335602C-74.3024 0.130441 -73.9494 0.0791512 -73.7476 0.233022L11.4947 65.4742L249.366 170.158L446.432 246.426C446.583 246.478 446.684 246.58 446.735 246.734L476.242 321.772L647.735 372.292C647.886 372.344 647.987 372.446 648.038 372.549L683.093 448.099L835.167 478.771C835.319 478.822 835.419 478.874 835.52 479.028L875.266 554.732L1012.41 569.709C1012.56 569.709 1012.71 569.811 1012.81 569.965L1056.8 645.772L1230.31 723.836L1347.13 715.783L1457.54 704.346L1563.31 689.882C1563.51 689.882 1563.66 689.933 1563.76 690.087L1687.84 850.164C1687.99 850.369 1687.99 850.728 1687.74 850.882C1687.69 850.882 1687.59 850.882 1687.49 850.882Z" fill="#F7F9FC"/>
<path d="M1642.45 274.431C1642.3 274.431 1642.2 274.38 1642.09 274.277L1610.37 241.605L1515.74 250.683C1515.59 250.683 1515.44 250.632 1515.34 250.53L1485.63 218.217L1390.55 221.858C1390.4 221.858 1390.25 221.807 1390.15 221.704L1362.31 189.699L1266.17 187.443C1266.02 187.443 1265.87 187.391 1265.82 187.237L1239.79 155.591L1141.89 147.026C1141.74 147.026 1141.64 146.923 1141.54 146.821L1117.22 115.482L1016.85 99.8901C1016.7 99.8901 1016.6 99.7876 1016.5 99.685L993.95 68.7057L890.298 45.3686C890.247 45.3686 890.247 45.3686 890.197 45.3173L799.255 1.10511C799.003 1.00253 798.902 0.69479 799.003 0.438339C799.103 0.181887 799.406 0.0793068 799.658 0.181887L890.55 44.4454L994.303 67.8337C994.404 67.885 994.505 67.9363 994.606 68.0389L1017.15 99.0182L1117.53 114.61C1117.68 114.61 1117.78 114.713 1117.83 114.816L1142.09 146.154L1239.99 154.719C1240.14 154.719 1240.24 154.822 1240.35 154.925L1266.37 186.571L1362.51 188.827C1362.66 188.827 1362.76 188.879 1362.86 188.981L1390.71 220.935L1485.78 217.294C1485.93 217.294 1486.09 217.345 1486.19 217.447L1515.9 249.76L1610.52 240.682C1610.67 240.682 1610.82 240.733 1610.92 240.836L1642.6 273.456L1687.39 266.737C1687.64 266.686 1687.94 266.891 1687.94 267.148C1687.99 267.404 1687.79 267.712 1687.54 267.712L1642.5 274.482C1642.5 274.431 1642.45 274.431 1642.45 274.431Z" fill="#F7F9FC"/>
<path d="M1687.49 320.849C1687.34 320.849 1687.24 320.797 1687.14 320.695L1675.69 308.898L1580 320.541C1579.85 320.541 1579.7 320.49 1579.6 320.387L1546.86 284.792L1450.78 290.998C1450.63 290.998 1450.48 290.946 1450.37 290.844L1419.71 255.607L1322.51 255.915C1322.36 255.915 1322.21 255.864 1322.11 255.71L1293.41 220.833L1194.4 214.78C1194.24 214.78 1194.14 214.678 1194.04 214.575L1167.26 180.057L1065.67 166.978C1065.52 166.978 1065.42 166.875 1065.32 166.773L1040.45 132.562L935.44 111.636C935.289 111.584 935.188 111.533 935.138 111.43L912.137 77.6302L802.684 47.8818C802.634 47.8818 802.634 47.8818 802.583 47.8306L715.677 1.10514C715.424 0.951269 715.324 0.643527 715.475 0.387076C715.626 0.130625 715.929 0.028044 716.181 0.181915L802.987 46.9586L912.541 76.7583C912.642 76.8095 912.743 76.8608 912.844 76.9634L935.844 110.764L1040.86 131.69C1040.96 131.69 1041.11 131.793 1041.16 131.895L1066.03 166.055L1167.61 179.134C1167.76 179.134 1167.86 179.236 1167.97 179.339L1194.75 213.857L1293.76 219.909C1293.91 219.909 1294.01 219.961 1294.11 220.115L1322.81 254.992L1420.01 254.684C1420.16 254.684 1420.31 254.735 1420.36 254.838L1451.03 290.023L1547.12 283.817C1547.27 283.817 1547.42 283.868 1547.52 283.971L1580.26 319.515L1675.94 307.872C1676.09 307.872 1676.24 307.923 1676.34 308.026L1687.99 320.028C1688.2 320.233 1688.2 320.541 1687.99 320.746C1687.74 320.797 1687.64 320.849 1687.49 320.849Z" fill="#F7F9FC"/>
<path d="M1687.49 473.899C1687.44 473.899 1687.44 473.899 1687.39 473.899L1590.95 452.254C1590.85 452.254 1590.75 452.152 1590.7 452.1L1552.92 408.709L1453.91 415.735C1453.75 415.735 1453.6 415.684 1453.5 415.53L1418.14 372.549L1317.16 373.216C1317.01 373.216 1316.86 373.165 1316.76 373.011L1283.72 330.389L1179.92 323.977C1179.77 323.977 1179.62 323.875 1179.57 323.772L1148.8 281.458L1041.16 267.096C1041.01 267.096 1040.91 266.994 1040.81 266.891L1012.26 224.987L899.679 201.599C899.528 201.547 899.427 201.496 899.376 201.394L873.148 159.9L754.263 126.048C754.212 126.048 754.162 125.997 754.162 125.997L603.248 38.5983L515.231 1.10511C514.979 1.00253 514.878 0.69479 514.979 0.438339C515.08 0.181887 515.383 0.0793068 515.635 0.181887L603.651 37.6751C603.651 37.6751 603.702 37.6751 603.702 37.7264L754.465 124.971L873.501 158.874C873.602 158.925 873.703 158.977 873.804 159.079L899.982 200.573L1012.56 223.961C1012.71 224.013 1012.81 224.064 1012.86 224.166L1041.36 266.071L1149 280.432C1149.15 280.432 1149.25 280.534 1149.35 280.637L1180.12 322.9L1283.93 329.311C1284.08 329.311 1284.18 329.414 1284.28 329.517L1317.32 372.139L1418.24 371.472C1418.4 371.472 1418.55 371.523 1418.65 371.677L1454.01 414.658L1553.02 407.632C1553.17 407.632 1553.32 407.683 1553.42 407.785L1591.25 451.228L1687.54 472.822C1687.79 472.873 1687.99 473.181 1687.94 473.437C1687.94 473.745 1687.74 473.899 1687.49 473.899Z" fill="#F7F9FC"/>
<path d="M1687.49 211.344C1687.39 211.344 1687.24 211.293 1687.14 211.19L1673.87 198.214L1580.21 210.267C1580.05 210.267 1579.9 210.215 1579.8 210.113L1550.9 180.365L1457.34 187.237C1457.18 187.237 1457.03 187.186 1456.93 187.084L1429.85 157.643L1335.83 159.079C1335.68 159.079 1335.52 159.028 1335.42 158.925L1310.05 129.792L1214.97 125.381C1214.82 125.381 1214.72 125.33 1214.62 125.176L1190.86 96.2998L1094.12 85.5802C1093.97 85.5802 1093.87 85.4776 1093.77 85.375L1071.63 56.8576L972.463 39.2138C972.412 39.2138 972.362 39.2138 972.362 39.1625L885.354 1.10511C885.102 1.00253 885.001 0.69479 885.102 0.438339C885.203 0.181887 885.506 0.0793068 885.758 0.181887L972.715 38.1367L1071.98 55.8318C1072.08 55.8318 1072.23 55.9344 1072.28 56.037L1094.37 84.5544L1191.12 95.274C1191.27 95.274 1191.37 95.3766 1191.47 95.4792L1215.18 124.304L1310.25 128.715C1310.41 128.715 1310.51 128.767 1310.61 128.869L1335.98 158.002L1430 156.566C1430.15 156.566 1430.3 156.617 1430.35 156.72L1457.44 186.16L1550.95 179.287C1551.1 179.287 1551.25 179.339 1551.35 179.441L1580.26 209.19L1673.92 197.136C1674.07 197.136 1674.22 197.188 1674.32 197.29L1687.79 210.421C1687.99 210.626 1687.99 210.934 1687.79 211.139C1687.74 211.293 1687.64 211.344 1687.49 211.344Z" fill="#F7F9FC"/>
<path d="M1563.41 690.856C1563.36 690.856 1563.31 690.856 1563.26 690.856L1409.67 639.669L1254.57 580.941L1096.49 513.392L933.675 435.379L763.998 344.801L585.09 239.143L424.441 134.716L393.824 114.815C393.723 114.764 393.673 114.662 393.622 114.559L370.622 56.0881L294.56 1.05368C294.307 0.899812 294.257 0.592071 294.459 0.335619C294.61 0.0791681 294.913 0.0278778 295.165 0.233039L371.379 55.3188C371.479 55.3701 371.53 55.4726 371.53 55.5239L394.53 113.995L424.995 133.793L585.644 238.22L764.502 343.878L934.079 434.354L1096.85 512.366L1254.92 579.915L1409.97 638.643L1563.46 689.779L1665.9 672.546C1665.95 672.546 1666.05 672.546 1666.1 672.546L1687.59 678.034C1687.84 678.085 1688.04 678.393 1687.94 678.649C1687.89 678.906 1687.59 679.111 1687.34 679.008L1665.95 673.571L1563.46 690.805C1563.46 690.856 1563.41 690.856 1563.41 690.856Z" fill="#F7F9FC"/>
<path d="M1687.49 404.503C1687.44 404.503 1687.44 404.503 1687.39 404.503L1650.77 397.681C1650.67 397.681 1650.57 397.63 1650.47 397.527L1614.25 358.137L1517.16 367.369C1517 367.369 1516.85 367.317 1516.75 367.215L1482.81 328.234L1384.65 331.619C1384.5 331.619 1384.35 331.568 1384.25 331.414L1352.47 292.793L1252.45 289.767C1252.3 289.767 1252.15 289.715 1252.05 289.561L1222.39 251.299L1119.64 241.246C1119.49 241.246 1119.39 241.143 1119.29 241.041L1091.7 203.137L985.325 185.186C985.173 185.186 985.073 185.083 984.972 184.981L959.449 147.436L848.382 120.509C848.231 120.457 848.13 120.406 848.08 120.304L824.676 83.2208L707.758 45.9841C707.707 45.9841 707.707 45.9328 707.657 45.9328L631.695 1.10508C631.443 0.951211 631.393 0.64347 631.494 0.387019C631.645 0.130567 631.947 0.079277 632.2 0.181858L708.111 44.9582L825.18 82.2463C825.281 82.2976 825.382 82.3488 825.432 82.4514L848.836 119.534L959.853 146.462C959.954 146.513 960.105 146.564 960.156 146.667L985.678 184.16L1092.05 202.112C1092.21 202.112 1092.31 202.214 1092.36 202.317L1119.95 240.22L1222.69 250.273C1222.84 250.273 1222.94 250.376 1223.04 250.478L1252.7 288.741L1352.72 291.767C1352.88 291.767 1353.03 291.818 1353.08 291.972L1384.85 330.594L1483.01 327.209C1483.16 327.209 1483.31 327.26 1483.41 327.362L1517.36 366.343L1614.4 357.111C1614.55 357.111 1614.71 357.162 1614.81 357.265L1651.07 396.707L1687.54 403.477C1687.79 403.528 1687.99 403.785 1687.94 404.093C1687.94 404.349 1687.74 404.503 1687.49 404.503Z" fill="#F7F9FC"/>
<path d="M1603.86 30.2891C1603.76 30.2891 1603.61 30.2378 1603.51 30.1353L1579.95 8.33691L1490.47 18.954C1490.42 18.954 1490.37 18.954 1490.32 18.954L1378.75 2.95144L1288.87 4.1824C1288.82 4.1824 1288.77 4.1824 1288.77 4.1824L1275.91 1.15628C1275.65 1.10499 1275.45 0.797245 1275.55 0.540794C1275.6 0.284342 1275.91 0.0791813 1276.16 0.181762L1288.97 3.20789L1378.8 1.92563C1378.85 1.92563 1378.85 1.92563 1378.9 1.92563L1490.42 17.9282L1580.05 7.31111C1580.21 7.31111 1580.36 7.3624 1580.46 7.46498L1604.01 29.2633L1687.39 15.0046C1687.69 14.9534 1687.94 15.1585 1687.99 15.415C1688.04 15.6714 1687.84 15.9792 1687.59 16.0304L1603.96 30.2891C1603.91 30.2378 1603.86 30.2891 1603.86 30.2891Z" fill="#F7F9FC"/>
<path d="M1687.49 125.125H1687.44L1588.73 115.021L1471.05 98.0435L1354.99 76.1426L1239.99 49.1126C1239.89 49.1126 1239.79 49.01 1239.74 48.9587L1218.35 24.3907L1137 1.15622C1136.74 1.10493 1136.59 0.797185 1136.64 0.540734C1136.69 0.284283 1137 0.130412 1137.25 0.181702L1218.66 23.4162C1218.76 23.4675 1218.86 23.5188 1218.91 23.5701L1240.3 48.1381L1355.15 75.168L1471.16 97.0177L1588.83 113.995L1687.54 124.099C1687.79 124.15 1687.99 124.355 1687.99 124.663C1687.94 124.92 1687.74 125.125 1687.49 125.125Z" fill="#F7F9FC"/>
<path d="M1687.49 199.65H1687.44L1673.97 198.213L1550.95 180.364L1429.9 157.643L1310.1 129.741L1190.92 96.2997L1071.68 56.8575C1071.58 56.8062 1071.48 56.7549 1071.42 56.7036L1050.24 29.3659L977.204 1.1563C976.952 1.05372 976.801 0.745982 976.902 0.489531C977.003 0.23308 977.305 0.0792091 977.557 0.18179L1050.74 28.4427C1050.85 28.494 1050.9 28.5453 1050.95 28.5966L1072.13 55.9343L1191.22 95.3252L1310.36 128.766L1430.1 156.668L1551.1 179.39L1674.07 197.239L1687.49 198.675C1687.74 198.726 1687.94 198.932 1687.94 199.239C1687.94 199.444 1687.74 199.65 1687.49 199.65Z" fill="#F7F9FC"/>
<path d="M1687.49 437.482C1687.34 437.482 1687.24 437.431 1687.14 437.329L1650.67 397.681L1553.17 408.606C1553.02 408.606 1552.87 408.555 1552.72 408.452L1516.95 367.369L1418.35 372.498C1418.19 372.498 1418.04 372.446 1417.94 372.292L1384.45 331.568L1283.93 330.286C1283.77 330.286 1283.62 330.234 1283.52 330.081L1252.25 289.715L1148.95 281.406C1148.8 281.406 1148.65 281.304 1148.6 281.201L1119.44 241.195L1012.41 224.936C1012.26 224.936 1012.16 224.833 1012.06 224.73L985.073 185.083L873.249 159.797C873.098 159.746 872.997 159.694 872.946 159.592L848.181 120.406L730.304 84.7594L603.298 38.5982C603.248 38.5982 603.248 38.5469 603.197 38.5469L544.637 1.0537C544.385 0.899831 544.335 0.592089 544.486 0.335638C544.637 0.0791866 544.94 0.0278964 545.192 0.181767L603.702 37.6236L730.607 83.7849L848.685 119.483C848.786 119.534 848.887 119.585 848.988 119.688L873.753 158.874L985.577 184.16C985.678 184.211 985.829 184.262 985.88 184.365L1012.81 223.961L1119.8 240.22C1119.95 240.22 1120.05 240.323 1120.15 240.425L1149.25 280.432L1252.5 288.741C1252.65 288.741 1252.75 288.843 1252.85 288.946L1284.13 329.311L1384.65 330.593C1384.8 330.593 1384.95 330.645 1385.06 330.799L1418.55 371.523L1517.16 366.394C1517.31 366.394 1517.46 366.445 1517.56 366.548L1553.32 407.631L1650.82 396.707C1650.97 396.707 1651.12 396.758 1651.22 396.861L1687.84 436.662C1688.04 436.867 1688.04 437.175 1687.84 437.38C1687.74 437.431 1687.59 437.482 1687.49 437.482Z" fill="#F7F9FC"/>
<path d="M1687.49 890.529C1687.44 890.529 1687.39 890.529 1687.34 890.529L1564.12 851.6L1454.61 874.424C1454.51 874.424 1454.41 874.424 1454.31 874.424L1282.01 806.926L1156.31 818.62C1156.21 818.62 1156.11 818.62 1156.06 818.569L965.502 728.401L762.938 622.23L543.78 495.748L301.873 342.903L47.9118 254.222C47.7605 254.171 47.6092 254.017 47.5588 253.812L-2.07345 0.746052C-2.12389 0.489601 -1.97256 0.181859 -1.66993 0.130569C-1.41773 0.0792789 -1.1151 0.23315 -1.06467 0.540891L48.4667 253.351L302.176 341.929C302.226 341.929 302.226 341.98 302.277 341.98L544.183 494.825L763.291 621.255L965.805 727.375L1156.21 817.492L1281.91 805.798C1282.01 805.798 1282.06 805.798 1282.16 805.849L1454.46 873.347L1563.96 850.523C1564.06 850.523 1564.12 850.523 1564.22 850.523L1687.59 889.452C1687.84 889.555 1687.99 889.811 1687.94 890.119C1687.89 890.427 1687.69 890.529 1687.49 890.529Z" fill="#F7F9FC"/>
<path d="M1687.49 777.691C1687.44 777.691 1687.39 777.691 1687.34 777.691L1614.45 756.764L1508.98 775.793C1508.88 775.793 1508.83 775.793 1508.73 775.793L1346.97 716.758C1346.87 716.707 1346.77 716.655 1346.72 716.553L1254.42 580.941L1137.85 578.685C1137.7 578.685 1137.55 578.582 1137.45 578.428L1096.34 513.341L971.555 500.518C971.404 500.518 971.252 500.416 971.151 500.262L933.473 435.328L798.145 409.735C797.994 409.683 797.842 409.632 797.792 409.478L763.846 344.801L615.05 303.564C614.899 303.512 614.798 303.41 614.748 303.307L584.989 239.143L418.943 178.313C418.791 178.262 418.691 178.159 418.64 178.005L393.723 114.713L205.333 29.2122L150.303 1.10512C150.051 1.00254 149.95 0.694797 150.102 0.438345C150.202 0.181894 150.505 0.0793136 150.757 0.233184L205.787 28.3402L394.328 113.892C394.429 113.944 394.53 114.046 394.581 114.149L419.498 177.441L585.544 238.169C585.644 238.22 585.796 238.323 585.846 238.425L615.605 302.589L764.401 343.827C764.552 343.878 764.653 343.98 764.704 344.083L798.649 408.709L933.978 434.303C934.129 434.354 934.23 434.405 934.331 434.559L972.009 499.492L1096.8 512.315C1096.95 512.315 1097.1 512.418 1097.15 512.571L1138.26 577.659L1254.82 579.916C1254.97 579.916 1255.12 580.018 1255.23 580.121L1347.58 715.835L1509.04 774.767L1614.5 755.79C1614.55 755.79 1614.66 755.79 1614.71 755.79L1687.69 776.768C1687.94 776.819 1688.09 777.127 1688.04 777.383C1687.89 777.537 1687.69 777.691 1687.49 777.691Z" fill="#F7F9FC"/>
<path d="M1628.53 53.1135C1628.43 53.1135 1628.27 53.0622 1628.17 52.9596L1603.66 30.2893L1513.58 41.5731C1513.42 41.5731 1513.27 41.5219 1513.17 41.4193L1490.17 19.0054L1400.54 25.3654C1400.49 25.3654 1400.44 25.3654 1400.39 25.3654L1288.82 4.18255L1209.83 1.15642C1209.53 1.15642 1209.33 0.899969 1209.33 0.643518C1209.33 0.335776 1209.58 0.130615 1209.83 0.130615L1288.87 3.15674H1288.92L1400.49 24.2883L1490.32 17.9283C1490.47 17.9283 1490.63 17.9796 1490.73 18.0822L1513.68 40.496L1603.76 29.2122C1603.91 29.2122 1604.06 29.2635 1604.16 29.3661L1628.68 52.0364L1687.39 41.6757C1687.64 41.6244 1687.94 41.8296 1687.99 42.086C1688.04 42.3425 1687.84 42.6502 1687.59 42.7015L1628.63 53.1135C1628.58 53.0622 1628.53 53.1135 1628.53 53.1135Z" fill="#F7F9FC"/>
<path d="M1687.49 550.167C1687.44 550.167 1687.44 550.167 1687.39 550.167L1673.47 547.09C1673.37 547.09 1673.27 546.987 1673.22 546.936L1630.95 498.364L1531.23 509.75C1531.08 509.75 1530.88 509.699 1530.77 509.545L1491.18 461.384L1389.49 466.462C1389.34 466.462 1389.19 466.41 1389.09 466.256L1352.02 418.454L1247.36 416.505C1247.21 416.505 1247.05 416.402 1246.95 416.3L1212.4 368.856L1103.66 358.957C1103.5 358.957 1103.35 358.855 1103.3 358.752L1071.22 311.668L957.129 292.536C956.978 292.536 956.877 292.434 956.776 292.331L927.269 245.606L806.467 216.011C806.316 215.96 806.215 215.909 806.165 215.755L779.331 169.491L650.005 127.433C649.904 127.382 649.753 127.279 649.702 127.177L625.744 81.5282L485.724 24.596L435.588 1.10511C435.336 1.00253 435.235 0.69479 435.336 0.438339C435.436 0.181887 435.739 0.0793068 435.991 0.181887L486.128 23.6728L626.248 80.6563C626.349 80.7076 626.45 80.7589 626.5 80.9127L650.459 126.561L779.785 168.619C779.886 168.67 779.987 168.722 780.088 168.824L806.921 215.088L927.723 244.683C927.875 244.734 927.976 244.785 928.026 244.888L957.533 291.613L1071.58 310.642C1071.73 310.642 1071.83 310.744 1071.93 310.847L1103.96 357.931L1212.7 367.83C1212.86 367.83 1212.96 367.933 1213.06 368.036L1247.61 415.479L1352.27 417.428C1352.42 417.428 1352.57 417.479 1352.67 417.633L1389.7 465.436L1491.38 460.358C1491.53 460.358 1491.68 460.409 1491.79 460.563L1531.38 508.725L1631.1 497.338C1631.25 497.338 1631.4 497.39 1631.55 497.492L1673.92 546.115L1687.64 549.193C1687.89 549.244 1688.09 549.552 1688.04 549.808C1687.94 550.013 1687.74 550.167 1687.49 550.167Z" fill="#F7F9FC"/>
<path d="M1588.78 114.969C1588.63 114.969 1588.53 114.918 1588.43 114.816L1562.5 89.4781L1471.16 97.941C1471 97.941 1470.85 97.8897 1470.75 97.7872L1446.44 72.7575L1355.09 76.0914C1354.94 76.0914 1354.79 76.0401 1354.69 75.9375L1331.89 51.1643L1240.04 49.0614C1239.99 49.0614 1239.94 49.0614 1239.94 49.0614L1125.39 16.4921L1079.65 1.10503C1079.39 1.00245 1079.24 0.746003 1079.34 0.438262C1079.44 0.18181 1079.7 0.0279396 1080 0.13052L1125.75 15.4663L1240.24 48.0356L1332.25 50.1385C1332.4 50.1385 1332.5 50.1898 1332.6 50.2924L1355.4 75.0656L1446.74 71.7317C1446.89 71.7317 1447.05 71.783 1447.1 71.8856L1471.41 96.9152L1562.75 88.4523C1562.9 88.4523 1563.06 88.5036 1563.16 88.6062L1589.08 113.892L1680.98 100.506C1681.13 100.506 1681.29 100.506 1681.39 100.659L1687.99 106.763C1688.2 106.968 1688.2 107.276 1688.04 107.481C1687.84 107.686 1687.54 107.686 1687.34 107.532L1680.93 101.583L1589.03 115.021C1588.83 114.969 1588.78 114.969 1588.78 114.969Z" fill="#F7F9FC"/>
<path d="M1687.49 252.838H1687.44L1610.52 241.605C1610.42 241.605 1610.32 241.554 1610.22 241.451L1579.95 210.318L1485.83 218.268C1485.68 218.268 1485.53 218.217 1485.43 218.114L1457.08 187.289L1362.51 189.75C1362.36 189.75 1362.21 189.699 1362.11 189.597L1335.52 159.079L1239.89 155.694C1239.74 155.694 1239.59 155.642 1239.54 155.489L1214.67 125.279L1117.32 115.585C1117.17 115.585 1117.07 115.482 1116.97 115.38L1093.82 85.4774L994.102 68.8594C993.95 68.8594 993.849 68.7568 993.799 68.6542L972.261 39.111L869.315 14.7481L823.667 1.15622C823.415 1.05364 823.264 0.797185 823.314 0.540734C823.415 0.284283 823.667 0.130412 823.92 0.181702L869.567 13.7736L972.665 38.1878C972.766 38.2391 972.867 38.2904 972.968 38.3929L994.455 67.9361L1094.22 84.6055C1094.32 84.6055 1094.48 84.708 1094.53 84.8106L1117.68 114.662L1215.03 124.355C1215.18 124.355 1215.28 124.458 1215.38 124.561L1240.19 154.771L1335.83 158.156C1335.98 158.156 1336.08 158.207 1336.18 158.31L1362.76 188.827L1457.29 186.365C1457.44 186.365 1457.59 186.417 1457.69 186.519L1486.04 217.345L1580.1 209.395C1580.26 209.395 1580.41 209.446 1580.51 209.549L1610.82 240.733L1687.59 251.966C1687.84 252.017 1688.04 252.273 1687.99 252.53C1687.94 252.684 1687.74 252.838 1687.49 252.838Z" fill="#F7F9FC"/>
<path d="M1614.5 756.764C1614.45 756.764 1614.4 756.764 1614.35 756.764L1457.49 705.32L1299.11 646.336L1137.7 578.633L971.404 500.467L798.044 409.683L637.748 316.745L614.95 303.512L447.542 196.675L418.842 178.364L226.164 96.9664C226.013 96.9151 225.912 96.8125 225.861 96.6587L205.131 29.0581L168.209 1.05367C168.008 0.899795 167.957 0.540763 168.108 0.335602C168.26 0.130441 168.613 0.0791512 168.815 0.233022L205.837 28.3401C205.938 28.3914 205.988 28.4939 206.039 28.5965L226.769 96.0432L419.296 177.338C419.346 177.338 419.346 177.338 419.346 177.39L448.097 195.751L615.504 302.589L638.303 315.822L798.548 408.76L971.858 499.544L1138.11 577.71L1299.46 645.413L1457.79 704.346L1614.55 755.738L1687.44 740.659C1687.69 740.608 1687.99 740.762 1688.04 741.069C1688.09 741.326 1687.94 741.634 1687.64 741.685L1614.66 756.764C1614.55 756.713 1614.5 756.764 1614.5 756.764Z" fill="#F7F9FC"/>
<path d="M1631.15 498.312C1631.1 498.312 1631.05 498.312 1631 498.312L1491.28 461.383L1352.07 418.402L1212.45 368.804L1071.27 311.564L927.37 245.605L779.381 169.541L652.678 97.017L625.744 81.5786C625.643 81.5273 625.592 81.476 625.542 81.3734L583.274 0.847732C583.122 0.591281 583.223 0.283539 583.475 0.129669C583.728 -0.024202 584.03 0.0783785 584.182 0.33483L626.399 80.7067L653.183 96.0424L779.835 168.567L927.774 244.63L1071.63 310.59L1212.76 367.778L1352.32 417.376L1491.48 460.254L1631.1 497.183L1687.34 488.669C1687.59 488.618 1687.89 488.823 1687.89 489.08C1687.94 489.336 1687.74 489.644 1687.49 489.644L1631.15 498.209C1631.2 498.312 1631.15 498.312 1631.15 498.312Z" fill="#F7F9FC"/>
<path d="M1687.49 590.686C1687.44 590.686 1687.39 590.686 1687.39 590.686L1573.24 561.04L1428.79 517.392L1283.98 467.076L1137.7 409.118L988.553 342.39L835.066 265.403L675.578 176.261L507.968 72.6029C507.867 72.5516 507.817 72.449 507.766 72.3977L485.523 24.4413L451.526 1.0017C451.274 0.847829 451.224 0.540087 451.375 0.283636C451.526 0.0271847 451.829 -0.0241056 452.081 0.129765L486.229 23.6207C486.279 23.672 486.38 23.7233 486.38 23.8259L508.624 71.7822L676.082 175.337L835.571 264.428L855.696 274.533L989.007 341.415L1138.11 408.092L1284.38 465.999L1429.14 516.315L1573.55 559.963L1687.64 589.609C1687.89 589.66 1688.09 589.968 1687.99 590.224C1687.94 590.532 1687.69 590.686 1687.49 590.686Z" fill="#F7F9FC"/>
<path d="M1675.84 308.847C1675.69 308.847 1675.59 308.795 1675.48 308.693L1642.25 274.431L1547.07 284.791C1546.92 284.791 1546.76 284.74 1546.66 284.638L1515.49 250.735L1419.91 255.607C1419.76 255.607 1419.61 255.556 1419.51 255.453L1390.3 221.91L1293.61 220.884C1293.46 220.884 1293.31 220.832 1293.21 220.679L1265.87 187.443L1167.41 180.057C1167.26 180.057 1167.16 179.954 1167.06 179.852L1141.59 146.975L1040.61 132.613C1040.45 132.613 1040.35 132.511 1040.25 132.408L1016.55 99.8901L912.238 77.7327C912.087 77.6814 911.986 77.6301 911.936 77.5275L890.045 45.4198L781.399 14.4405L743.065 1.1563C742.813 1.05372 742.662 0.797273 742.763 0.489531C742.863 0.23308 743.116 0.0792091 743.418 0.18179L781.702 13.466L890.499 44.4966C890.6 44.5479 890.701 44.5992 890.802 44.7017L912.642 76.8094L1016.95 98.9668C1017.05 99.0181 1017.2 99.0694 1017.25 99.172L1040.91 131.69L1141.89 146.051C1142.04 146.051 1142.14 146.154 1142.19 146.256L1167.66 179.134L1266.12 186.519C1266.27 186.519 1266.37 186.571 1266.47 186.724L1293.76 219.909L1390.45 220.935C1390.6 220.935 1390.76 220.986 1390.81 221.089L1420.01 254.633L1515.59 249.76C1515.74 249.76 1515.9 249.811 1516 249.914L1547.17 283.766L1642.35 273.456C1642.5 273.456 1642.65 273.508 1642.75 273.61L1675.99 307.821L1687.39 305.974C1687.64 305.923 1687.94 306.128 1687.94 306.385C1687.99 306.641 1687.79 306.949 1687.54 306.949L1675.89 308.847C1675.89 308.847 1675.89 308.847 1675.84 308.847Z" fill="#F7F9FC"/>
<path d="M1674.02 198.213C1673.87 198.213 1673.77 198.162 1673.67 198.06L1644.16 169.286L1551.05 180.364C1550.9 180.364 1550.75 180.313 1550.65 180.211L1523.01 151.744L1430 157.643C1429.85 157.643 1429.69 157.592 1429.59 157.489L1403.67 129.331L1310.2 129.792C1310.05 129.792 1309.9 129.741 1309.8 129.638L1285.54 101.736L1191.02 96.351C1190.86 96.351 1190.76 96.2997 1190.66 96.1458L1167.97 68.5517L1071.78 56.8575C1071.73 56.8575 1071.68 56.8575 1071.68 56.8062L951.732 10.7476L912.894 1.15628C912.642 1.10499 912.44 0.797245 912.541 0.540794C912.592 0.284342 912.894 0.0791813 913.146 0.181762L952.035 9.82433H952.085L1071.98 55.8317L1168.32 67.5259C1168.47 67.5259 1168.57 67.6284 1168.62 67.731L1191.32 95.3252L1285.84 100.711C1285.99 100.711 1286.09 100.762 1286.19 100.865L1310.46 128.766L1403.92 128.305C1404.07 128.305 1404.17 128.356 1404.27 128.459L1430.25 156.566L1523.26 150.667C1523.41 150.667 1523.56 150.719 1523.66 150.821L1551.3 179.287L1644.36 168.209C1644.52 168.209 1644.67 168.26 1644.77 168.363L1674.22 197.136L1687.44 194.88C1687.69 194.828 1687.99 195.033 1688.04 195.29C1688.09 195.546 1687.89 195.854 1687.64 195.905L1674.17 198.213C1674.12 198.213 1674.07 198.213 1674.02 198.213Z" fill="#F7F9FC"/>
<path d="M1687.49 281.047H1687.44L1642.4 274.431L1515.64 250.735L1390.4 221.858L1281.76 191.802L1266.02 187.443L1141.74 147.026L1016.75 99.9414L890.146 45.4199C890.045 45.3686 889.995 45.3173 889.944 45.2147L869.113 14.5944L841.573 1.10511C841.321 1.00253 841.22 0.69479 841.321 0.438339C841.422 0.181887 841.724 0.0793068 841.977 0.181887L869.617 13.7738C869.718 13.8251 869.769 13.8764 869.819 13.9277L890.65 44.5479L1017 99.0182L1141.99 146.103L1266.27 186.519L1282.01 190.879L1390.6 220.935L1515.74 249.76L1642.5 273.456L1687.54 280.073C1687.79 280.124 1687.99 280.38 1687.94 280.637C1687.94 280.842 1687.74 281.047 1687.49 281.047Z" fill="#F7F9FC"/>
<path d="M1687.49 101.942L1680.88 101.531L1562.65 89.4782L1446.54 72.7575L1331.99 51.1643L1236.92 28.7505L1218.45 24.3908C1218.35 24.3908 1218.25 24.2883 1218.2 24.237L1197.98 1.00248C1197.77 0.797316 1197.83 0.489575 1198.03 0.284414C1198.23 0.079253 1198.53 0.130543 1198.73 0.335704L1218.86 23.4676L1237.17 27.776L1332.25 50.1898L1446.74 71.783L1562.8 88.5036L1680.98 100.506L1687.54 100.916C1687.84 100.916 1688.04 101.172 1687.99 101.48C1687.99 101.737 1687.74 101.942 1687.49 101.942Z" fill="#F7F9FC"/>
<path d="M1514.94 963.259C1514.79 963.259 1514.63 963.156 1514.53 963.054L1346.82 716.655L1182.09 648.952L1012.16 570.683L834.865 479.694L647.332 373.165L445.978 247.298C445.877 247.247 445.827 247.144 445.776 247.042L418.691 178.159L241.548 54.4982L205.282 29.1608C205.181 29.1095 205.131 29.0069 205.08 28.9044L196.405 0.797299C196.304 0.540847 196.455 0.233106 196.758 0.130525C197.01 0.0279448 197.313 0.181816 197.414 0.489557L205.988 28.4427L242.153 53.6775L419.397 177.441C419.498 177.492 419.548 177.595 419.599 177.697L446.684 246.58L647.886 372.344L668.768 384.192L835.369 478.822L1012.66 569.76L1182.54 648.029L1347.38 715.783C1347.48 715.835 1347.53 715.886 1347.58 715.988L1399.18 791.796L1515.34 962.541C1515.49 962.797 1515.44 963.105 1515.19 963.259C1515.14 963.259 1515.04 963.259 1514.94 963.259Z" fill="#F7F9FC"/>
<path d="M1687.49 340.595C1687.44 340.595 1687.44 340.595 1687.39 340.595L1579.8 320.541L1450.53 290.998L1322.31 255.915L1210.44 220.012L1194.24 214.832L1065.52 167.029L935.289 111.738L826.845 59.6273L802.533 47.9331C802.432 47.8818 802.382 47.8306 802.331 47.728L781.248 14.338L756.886 1.10514C756.633 0.951268 756.533 0.643527 756.684 0.387076C756.835 0.130625 757.138 0.0280441 757.39 0.181915L781.853 13.4661C781.954 13.5174 782.004 13.5687 782.055 13.62L803.138 47.0099L827.299 58.6528L935.693 110.764L1065.88 166.055L1194.55 213.857L1210.69 219.037L1322.56 254.941L1450.78 290.023L1580 319.566L1687.59 339.621C1687.84 339.672 1688.04 339.928 1687.99 340.236C1687.94 340.441 1687.74 340.595 1687.49 340.595Z" fill="#F7F9FC"/>
<path d="M1673.57 547.039C1673.52 547.039 1673.47 547.039 1673.47 547.039L1531.03 509.699L1389.29 466.41L1259.87 420.916L1247.16 416.454L1103.5 358.855L957.029 292.485L827.803 226.833L806.367 215.96L649.904 127.382L485.573 24.596C485.472 24.5447 485.422 24.4934 485.371 24.3909L474.476 0.89993C474.376 0.643479 474.476 0.335737 474.729 0.233157C474.981 0.130576 475.283 0.233157 475.384 0.489608L486.229 23.8267L650.358 126.561L806.821 215.088L828.257 225.962L957.432 291.613L1103.86 357.931L1247.51 415.479L1389.6 465.436L1531.33 508.725L1673.62 546.013L1687.39 543.602C1687.64 543.551 1687.94 543.756 1687.99 544.012C1688.04 544.269 1687.84 544.577 1687.59 544.628L1673.67 547.039C1673.67 547.039 1673.62 547.039 1673.57 547.039Z" fill="#F7F9FC"/>
<path d="M1644.36 169.286C1644.21 169.286 1644.11 169.235 1644.01 169.132L1615.77 141.589L1523.26 151.745C1523.11 151.745 1522.96 151.693 1522.86 151.591L1496.38 124.356L1403.92 129.331C1403.77 129.331 1403.62 129.279 1403.52 129.177L1378.7 102.198L1285.79 101.737C1285.64 101.737 1285.49 101.685 1285.44 101.583L1262.19 74.9118L1168.22 68.6543C1168.07 68.6543 1167.97 68.6031 1167.86 68.4492L1146.13 42.0347L1050.49 29.4686L951.783 10.8502C951.733 10.8502 951.733 10.8502 951.682 10.7989L929.741 1.15638C929.489 1.0538 929.388 0.746059 929.489 0.489608C929.59 0.233157 929.892 0.130576 930.145 0.233157L952.035 9.82443L1050.69 28.4428L1146.48 41.0089C1146.58 41.0089 1146.73 41.1115 1146.78 41.2141L1168.47 67.6285L1262.44 73.886C1262.59 73.886 1262.69 73.9372 1262.79 74.0398L1286.04 100.711L1378.95 101.172C1379.1 101.172 1379.21 101.224 1379.31 101.326L1404.12 128.305L1496.53 123.33C1496.68 123.33 1496.83 123.381 1496.93 123.484L1523.41 150.719L1615.92 140.563C1616.07 140.563 1616.22 140.615 1616.32 140.717L1644.52 168.26L1687.39 161.336C1687.64 161.285 1687.94 161.49 1687.94 161.746C1687.99 162.003 1687.79 162.31 1687.54 162.31L1644.41 169.286C1644.41 169.286 1644.41 169.286 1644.36 169.286Z" fill="#F7F9FC"/>
<path d="M1687.49 371.728C1687.44 371.728 1687.44 371.728 1687.39 371.728L1614.4 358.136C1614.3 358.136 1614.2 358.085 1614.1 357.983L1579.7 320.592L1483.11 328.234C1482.96 328.234 1482.81 328.183 1482.71 328.08L1450.48 291.049L1352.77 292.844C1352.62 292.844 1352.47 292.793 1352.37 292.639L1322.21 255.966L1222.69 251.35C1222.54 251.35 1222.39 251.248 1222.34 251.145L1194.14 214.831L1091.95 203.189C1091.8 203.189 1091.7 203.086 1091.6 202.983L1065.42 166.978L959.702 147.487C959.55 147.487 959.45 147.385 959.399 147.282L935.188 111.687L824.878 83.2207C824.777 83.1694 824.625 83.1181 824.575 83.0155L802.382 47.8817L686.422 9.26016L665.944 1.1563C665.691 1.05372 665.54 0.745982 665.641 0.489531C665.742 0.23308 666.045 0.0792091 666.297 0.18179L686.775 8.28565L802.886 46.9585C802.987 47.0098 803.088 47.0611 803.138 47.1637L825.332 82.2975L935.592 110.712C935.693 110.764 935.793 110.815 935.894 110.917L960.105 146.513L1065.78 166.003C1065.93 166.003 1066.03 166.106 1066.08 166.208L1092.26 202.163L1194.4 213.806C1194.55 213.806 1194.65 213.908 1194.75 214.011L1222.89 250.324L1322.41 254.94C1322.56 254.94 1322.66 254.992 1322.76 255.146L1352.93 291.818L1450.63 290.023C1450.78 290.023 1450.93 290.074 1451.03 290.177L1483.26 327.208L1579.85 319.566C1580 319.566 1580.15 319.617 1580.26 319.72L1614.71 357.162L1687.54 370.754C1687.79 370.805 1687.99 371.062 1687.94 371.369C1687.94 371.574 1687.74 371.728 1687.49 371.728Z" fill="#F7F9FC"/>
<path d="M1610.57 241.605C1610.52 241.605 1610.52 241.605 1610.47 241.605L1485.73 218.268L1362.41 189.751L1239.84 155.694L1117.27 115.534L1014.88 76.7068L994.001 68.8081L892.92 24.9549L869.264 14.6969C869.164 14.6456 869.113 14.5943 869.063 14.4917L859.782 0.9511C859.631 0.694649 859.681 0.386907 859.933 0.233037C860.185 0.0791659 860.488 0.130456 860.639 0.386907L869.819 13.825L893.374 24.0317L994.455 67.8849L1015.34 75.7836L1117.68 114.61L1240.19 154.719L1362.71 188.776L1485.98 217.293L1610.62 240.63L1687.49 229.962C1687.74 229.911 1688.04 230.116 1688.04 230.424C1688.09 230.68 1687.89 230.988 1687.59 230.988L1610.67 241.708C1610.62 241.605 1610.57 241.605 1610.57 241.605Z" fill="#F7F9FC"/>
<path d="M1650.87 397.681C1650.82 397.681 1650.82 397.681 1650.77 397.681L1517.06 367.369L1384.55 331.568L1252.35 289.767L1136.24 247.35L1119.54 241.195L985.224 185.083L848.332 120.406L733.734 59.6786L707.707 45.8815C707.606 45.8302 707.556 45.7789 707.506 45.6763L686.271 9.10638L672.753 1.05381C672.501 0.899942 672.45 0.5922 672.551 0.335749C672.702 0.0792978 673.005 0.0280075 673.257 0.130588L686.876 8.23445C686.926 8.28574 687.027 8.33703 687.078 8.43961L708.313 45.0096L848.836 119.483L871.181 130.049L985.678 184.16L1119.95 240.22L1252.7 288.741L1384.85 330.542L1517.36 366.343L1650.97 396.604L1687.49 391.065C1687.74 391.014 1688.04 391.219 1688.04 391.475C1688.09 391.732 1687.89 392.039 1687.64 392.039L1651.02 397.579C1650.92 397.681 1650.87 397.681 1650.87 397.681Z" fill="#F7F9FC"/>
<path d="M1687.49 310.59H1687.44L1675.79 308.898L1546.92 284.791L1419.71 255.607L1293.46 220.884L1167.31 180.108L1040.51 132.664L912.138 77.7326L806.568 26.5962L781.349 14.3892C781.248 14.3379 781.197 14.2866 781.147 14.184L772.774 0.899831C772.623 0.643379 772.673 0.335638 772.925 0.181767C773.178 0.0278964 773.48 0.0791866 773.632 0.335638L781.954 13.5172L807.022 25.673L912.592 76.7581L1040.91 131.639L1167.66 179.082L1293.76 219.858L1420.01 254.581L1547.17 283.766L1675.99 307.821L1687.59 309.513C1687.84 309.565 1688.04 309.821 1687.99 310.077C1687.94 310.385 1687.74 310.59 1687.49 310.59Z" fill="#F7F9FC"/>
<path d="M1687.49 225.91H1687.44L1580.05 210.318L1457.18 187.289L1335.68 159.079L1214.82 125.279L1113.19 91.8374L1093.97 85.4774L994.001 47.3175L972.413 39.111C972.312 39.0597 972.261 39.0084 972.16 38.9572L944.52 0.951085C944.368 0.745924 944.419 0.386893 944.62 0.233022C944.822 0.0791512 945.175 0.130441 945.327 0.335602L972.917 38.1878L994.454 46.3942L1094.37 84.5029L1113.59 90.8116L1215.18 124.253L1232.33 129.023L1335.98 157.951L1457.44 186.16L1580.26 209.189L1687.59 224.833C1687.84 224.884 1688.04 225.141 1687.99 225.397C1687.94 225.756 1687.74 225.91 1687.49 225.91Z" fill="#F7F9FC"/>
<path d="M1615.97 141.538C1615.82 141.538 1615.71 141.486 1615.61 141.384L1588.58 114.969L1496.63 124.253C1496.48 124.253 1496.32 124.202 1496.22 124.099L1470.85 97.9923L1378.95 102.096C1378.8 102.096 1378.65 102.044 1378.55 101.942L1354.74 76.0913L1262.39 74.8091C1262.24 74.8091 1262.14 74.7578 1262.03 74.6552L1239.74 49.0614L1146.33 41.9833C1146.18 41.9833 1146.07 41.932 1145.97 41.7782L1125.14 16.4921L1030.11 3.1566L1020.18 1.15628C1019.93 1.10499 1019.72 0.848534 1019.77 0.540793C1019.83 0.284341 1020.08 0.0791804 1020.38 0.130471L1030.37 2.13079L1125.55 15.5175C1125.65 15.5175 1125.8 15.6201 1125.85 15.6714L1146.63 40.9575L1240.09 48.0869C1240.24 48.0869 1240.35 48.1382 1240.45 48.2407L1262.69 73.8346L1355.04 75.1168C1355.2 75.1168 1355.3 75.1681 1355.4 75.2707L1379.15 101.121L1471.05 97.0178C1471.21 97.0178 1471.36 97.0691 1471.46 97.1716L1496.83 123.227L1588.73 113.944C1588.88 113.944 1589.03 113.995 1589.13 114.097L1616.17 140.461L1687.44 129.484C1687.69 129.433 1687.99 129.638 1687.99 129.895C1688.04 130.151 1687.84 130.459 1687.59 130.459L1616.07 141.435C1616.02 141.538 1616.02 141.538 1615.97 141.538Z" fill="#F7F9FC"/>
<path d="M1687.49 56.601L1628.48 53.1133L1513.47 41.573L1400.44 25.314C1400.34 25.314 1400.24 25.2627 1400.14 25.1601L1378.55 2.90014L1369.17 1.15628C1368.92 1.10499 1368.71 0.848534 1368.76 0.540793C1368.81 0.284341 1369.07 0.0791804 1369.37 0.130471L1378.9 1.92563C1379 1.92563 1379.1 1.97692 1379.15 2.0795L1400.74 24.3395L1513.58 40.5472L1628.53 52.0875L1687.49 55.5752C1687.79 55.5752 1687.99 55.8317 1687.94 56.1394C1687.99 56.3959 1687.74 56.601 1687.49 56.601Z" fill="#F7F9FC"/>
<path d="M1614.45 358.137C1614.4 358.137 1614.4 358.137 1614.35 358.137L1482.96 328.234L1352.62 292.793L1237.87 256.223L1222.54 251.35L1091.8 203.137L959.551 147.436L848.181 94.3508L824.827 83.2208L686.372 9.209C686.271 9.15771 686.22 9.10642 686.17 9.00384L681.479 0.899978C681.328 0.643527 681.429 0.335786 681.681 0.181915C681.933 0.028044 682.236 0.130625 682.387 0.387076L687.027 8.38836L825.332 82.2976L960.055 146.513L1092.26 202.214L1222.94 250.376L1238.28 255.248L1352.98 291.818L1483.26 327.209L1614.55 357.111L1687.49 347.16C1687.79 347.109 1688.04 347.314 1688.04 347.622C1688.09 347.879 1687.89 348.135 1687.59 348.186L1614.55 358.137C1614.5 358.137 1614.5 358.137 1614.45 358.137Z" fill="#F7F9FC"/>
<path d="M1680.88 101.531C1680.78 101.531 1680.63 101.48 1680.53 101.378L1654 76.8095L1562.7 89.4782C1562.55 89.4782 1562.4 89.4269 1562.3 89.3243L1537.38 65.0128L1446.59 72.7063C1446.44 72.7063 1446.29 72.655 1446.19 72.5524L1422.83 48.4973L1332.04 51.0618C1331.89 51.0618 1331.74 51.0105 1331.64 50.9079L1309.75 27.1093L1218.46 24.2883L1125.34 16.3896C1125.19 16.3896 1125.09 16.287 1124.99 16.1845L1112.38 0.848669C1112.18 0.643508 1112.23 0.284476 1112.43 0.130605C1112.63 -0.0745556 1112.99 -0.0232654 1113.14 0.181896L1125.65 15.3638L1218.51 23.2112L1310 26.0322C1310.15 26.0322 1310.25 26.0835 1310.36 26.186L1332.25 49.9847L1423.04 47.4202C1423.19 47.4202 1423.29 47.4715 1423.39 47.5741L1446.74 71.6292L1537.53 63.9357C1537.68 63.9357 1537.84 63.987 1537.94 64.0895L1562.8 88.4011L1654.05 75.7324C1654.2 75.7324 1654.35 75.7837 1654.45 75.8863L1680.98 100.454L1687.34 99.2746C1687.59 99.2234 1687.89 99.4285 1687.94 99.685C1687.99 99.9414 1687.79 100.249 1687.54 100.3L1680.93 101.531C1680.98 101.531 1680.93 101.531 1680.88 101.531Z" fill="#F7F9FC"/>
<path d="M1687.49 173.748H1687.44L1644.31 169.234L1523.16 151.693L1403.82 129.279L1285.74 101.685L1168.17 68.5517L1050.44 29.366C1050.34 29.3147 1050.24 29.2634 1050.19 29.2121L1029.91 3.05406L1024.92 1.10503C1024.67 1.00245 1024.52 0.694713 1024.62 0.438262C1024.72 0.18181 1025.02 0.0279396 1025.27 0.13052L1030.37 2.13084C1030.47 2.18213 1030.52 2.23342 1030.57 2.28471L1050.85 28.4427L1168.37 67.5259L1285.89 100.659L1403.97 128.254L1523.26 150.667L1644.36 168.209L1687.44 172.722C1687.69 172.774 1687.89 172.979 1687.89 173.286C1687.94 173.594 1687.74 173.748 1687.49 173.748Z" fill="#F7F9FC"/>
<path d="M1687.49 78.8611L1654.15 76.8608L1537.58 65.0641L1423.04 48.5999L1309.95 27.2119C1309.85 27.2119 1309.75 27.1606 1309.7 27.058L1285.74 1.00255C1285.54 0.797389 1285.54 0.489647 1285.74 0.284486C1285.94 0.079325 1286.25 0.079325 1286.45 0.284486L1310.31 26.2374L1423.19 47.5741L1537.69 64.0383L1654.25 75.7837L1687.54 77.7841C1687.84 77.7841 1688.04 78.0405 1687.99 78.3482C1687.99 78.656 1687.74 78.8611 1687.49 78.8611Z" fill="#F7F9FC"/>
<path d="M1687.49 148.924H1687.44L1615.92 141.538L1496.53 124.253L1378.85 102.096L1279.59 78.8098L1262.29 74.7579L1146.28 41.9322L1030.11 3.10544C1030.01 3.05415 1029.91 3.00286 1029.86 2.95157L1028.35 0.951248C1028.2 0.746087 1028.2 0.387055 1028.45 0.233184C1028.65 0.0793134 1029.01 0.0793134 1029.16 0.335765L1030.62 2.18221L1146.63 40.9576L1262.64 73.7834L1279.89 77.8353L1379.1 101.121L1496.73 123.279L1616.07 140.512L1687.54 147.898C1687.79 147.949 1687.99 148.154 1687.99 148.462C1687.94 148.77 1687.74 148.924 1687.49 148.924Z" fill="#F7F9FC"/>
<path d="M1687.49 633.411C1687.44 633.411 1687.39 633.411 1687.39 633.411L1618.14 615.562C1618.03 615.511 1617.93 615.46 1617.88 615.408L1573.19 561.092L1471 571.607C1470.85 571.607 1470.65 571.555 1470.55 571.401L1428.74 517.444L1323.42 520.983C1323.27 520.983 1323.12 520.932 1323.02 520.778L1283.98 467.128L1174.32 462.769C1174.17 462.769 1174.02 462.666 1173.92 462.563L1137.6 409.222L1022.3 395.732C1022.15 395.732 1021.99 395.63 1021.94 395.476L988.402 342.39L865.834 318.284C865.683 318.233 865.582 318.181 865.481 318.028L834.966 265.404L703.117 228.629C702.966 228.577 702.865 228.475 702.815 228.372L675.477 176.261L531.927 124.202C531.775 124.15 531.674 124.048 531.624 123.945L507.817 72.6037L349.538 1.87447L347.975 1.10512C347.723 1.00254 347.622 0.694797 347.773 0.438345C347.874 0.181894 348.176 0.0793136 348.429 0.233184L349.992 1.00254L508.422 71.7831C508.523 71.8344 508.624 71.9369 508.674 72.0395L532.481 123.381L675.981 175.441C676.082 175.492 676.183 175.595 676.233 175.697L703.571 227.757L835.419 264.532C835.571 264.583 835.672 264.634 835.722 264.788L866.238 317.361L988.805 341.519C988.957 341.57 989.057 341.621 989.158 341.724L1022.65 394.707L1137.95 408.196C1138.11 408.196 1138.21 408.298 1138.31 408.401L1174.57 461.743L1284.18 466.103C1284.33 466.103 1284.48 466.205 1284.58 466.308L1323.62 519.906L1428.94 516.367C1429.09 516.367 1429.24 516.418 1429.34 516.572L1471.16 570.529L1573.35 560.015C1573.5 560.015 1573.7 560.066 1573.8 560.22L1618.54 614.639L1687.64 632.437C1687.89 632.488 1688.09 632.796 1687.99 633.052C1687.94 633.257 1687.69 633.411 1687.49 633.411Z" fill="#F7F9FC"/>
<path d="M1666 673.623C1665.95 673.623 1665.9 673.623 1665.85 673.623L1515.54 629.257L1365.03 578.326L1213.01 519.803L1058.01 452.459L898.469 374.703L753.759 296.178L732.423 284.586L557.499 179.493L403.155 77.4763L370.824 56.0883C370.723 56.037 370.673 55.9344 370.622 55.8318L349.286 1.77188L348.328 1.05381C348.126 0.899941 348.025 0.5922 348.227 0.335749C348.378 0.130588 348.681 0.0280071 348.933 0.233168L349.993 1.00252C350.093 1.05381 350.144 1.15639 350.144 1.20768L371.429 55.3189L403.609 76.6044L557.953 178.569L732.826 283.612L754.162 295.203L898.872 373.729L1058.36 451.433L1213.26 518.726L1365.23 577.197L1515.69 628.128L1665.9 672.443L1687.29 668.237C1687.54 668.186 1687.84 668.34 1687.89 668.648C1687.94 668.904 1687.79 669.212 1687.49 669.263L1666 673.52C1666.05 673.623 1666 673.623 1666 673.623Z" fill="#F7F9FC"/>
<path d="M1618.24 615.562C1618.19 615.562 1618.14 615.562 1618.09 615.562L1470.8 571.555L1323.22 520.932L1174.12 462.717L1022.15 395.681L884.497 327.516L865.683 318.233L725.815 241.195L702.966 228.577L531.776 124.202L383.383 24.6472L349.438 1.87436C349.337 1.82307 349.286 1.72049 349.236 1.61791L348.933 0.848551C348.832 0.5921 348.933 0.284359 349.236 0.181778C349.488 0.0791977 349.791 0.181778 349.892 0.48952L350.144 1.105L383.938 23.7753L532.33 123.33L703.471 227.705L726.32 240.271L866.137 317.309L1022.55 394.706L1174.47 461.743L1323.52 519.957L1471.05 570.581L1618.24 614.536L1687.39 602.996C1687.64 602.945 1687.94 603.15 1687.94 603.406C1687.99 603.663 1687.79 603.971 1687.54 603.971L1618.29 615.511C1618.29 615.562 1618.24 615.562 1618.24 615.562Z" fill="#F7F9FC"/>
<path d="M1591.05 452.254C1591 452.254 1590.95 452.254 1590.9 452.254L1453.7 415.684L1316.96 373.113L1179.72 323.875L1058.26 274.072L1040.96 266.994L919.804 210.882L899.528 201.496L777.969 138.307L754.111 125.894C754.01 125.843 753.96 125.792 753.91 125.689L730.102 84.6569L587.057 1.10508C586.804 0.951211 586.754 0.64347 586.855 0.387019C587.006 0.130567 587.309 0.079277 587.561 0.181858L730.657 83.8363C730.708 83.8875 730.808 83.9388 730.859 84.0414L754.666 125.074L778.373 137.383L899.931 200.573L920.208 209.959L1041.36 266.071L1058.61 273.149L1180.07 322.9L1317.27 372.139L1453.96 414.658L1591.05 451.177L1687.39 438.56C1687.69 438.508 1687.89 438.714 1687.94 439.021C1687.99 439.278 1687.79 439.534 1687.49 439.585L1591.05 452.203C1591.1 452.254 1591.05 452.254 1591.05 452.254Z" fill="#F7F9FC"/>
<path d="M1654.2 76.8094C1654.1 76.8094 1653.95 76.7581 1653.85 76.6555L1628.37 53.062L1537.69 65.0639C1537.53 65.0639 1537.38 65.0126 1537.28 64.9101L1513.37 41.573L1423.19 48.5998C1423.04 48.5998 1422.89 48.5485 1422.78 48.4459L1400.34 25.3653L1310.1 27.263C1310.05 27.263 1310 27.263 1310 27.263L1199.74 1.15628C1199.49 1.10499 1199.29 0.797245 1199.39 0.540794C1199.44 0.284342 1199.74 0.0791813 1199.99 0.181762L1310.1 26.2372L1400.49 24.3395C1400.64 24.3395 1400.74 24.3908 1400.84 24.4933L1423.29 47.5739L1513.47 40.5472C1513.63 40.5472 1513.78 40.5985 1513.88 40.7011L1537.79 64.0381L1628.43 52.0875C1628.58 52.0875 1628.73 52.1388 1628.83 52.2414L1654.3 75.8349L1687.34 69.7826C1687.59 69.7313 1687.89 69.9365 1687.94 70.1929C1687.99 70.4494 1687.79 70.7571 1687.54 70.8084L1654.25 76.912C1654.25 76.8094 1654.2 76.8094 1654.2 76.8094Z" fill="#F7F9FC"/>
<path d="M790.629 1108C790.428 1108 790.276 1107.9 790.175 1107.69L730.758 971.517C730.657 971.26 730.758 970.952 731.01 970.85C731.262 970.747 731.565 970.85 731.666 971.106L791.083 1107.28C791.184 1107.54 791.083 1107.85 790.831 1107.95C790.781 1108 790.68 1108 790.629 1108Z" fill="#F7F9FC"/>
<path d="M842.985 1108C842.733 1108 842.531 1107.79 842.481 1107.54C842.43 1107.28 842.632 1107.03 842.935 1106.97L980.584 1090.05C980.886 1090 981.088 1090.2 981.138 1090.51C981.189 1090.82 980.987 1091.02 980.684 1091.07L843.036 1108C842.985 1108 842.985 1108 842.985 1108Z" fill="#F7F9FC"/>
</g>
</g>
</svg>
