<svg width="75" height="71" viewBox="0 0 75 71" fill="none" xmlns="http://www.w3.org/2000/svg">
<path d="M67.5312 53.9062H7.46875C4.25831 53.9062 1.65625 51.3042 1.65625 48.0938V7.40625C1.65625 4.19581 4.25831 1.59375 7.46875 1.59375H67.5312C70.7417 1.59375 73.3438 4.19581 73.3438 7.40625V48.0938C73.3438 51.3042 70.7417 53.9062 67.5312 53.9062Z" stroke="#0085FF" stroke-width="3" stroke-linecap="round" stroke-linejoin="round"/>
<path d="M17.1562 69.4062H57.8438" stroke="#0085FF" stroke-width="3" stroke-linecap="round" stroke-linejoin="round"/>
<path d="M46.2188 53.9062L48.1562 69.4062" stroke="#0085FF" stroke-width="3" stroke-linecap="round" stroke-linejoin="round"/>
<path d="M28.7812 53.9062L26.8438 69.4062" stroke="#0085FF" stroke-width="3" stroke-linecap="round" stroke-linejoin="round"/>
<path d="M37.5001 47.1249C38.5094 47.1249 39.3276 46.3066 39.3276 45.2973C39.3276 44.288 38.5094 43.4697 37.5001 43.4697C36.4907 43.4697 35.6725 44.288 35.6725 45.2973C35.6725 46.3066 36.4907 47.1249 37.5001 47.1249Z" fill="#0085FF"/>
</svg>
